<svg width="90" height="90" viewBox="0 0 90 90" fill="none" xmlns="http://www.w3.org/2000/svg">
<path d="M44 0.577351C44.6188 0.220085 45.3812 0.220085 46 0.57735L82.9711 21.9226C83.5899 22.2799 83.9711 22.9402 83.9711 23.6547V66.3453C83.9711 67.0598 83.5899 67.7201 82.9711 68.0774L46 89.4226C45.3812 89.7799 44.6188 89.7799 44 89.4226L7.02886 68.0774C6.41006 67.7201 6.02886 67.0598 6.02886 66.3453V23.6547C6.02886 22.9402 6.41006 22.2799 7.02886 21.9226L44 0.577351Z" fill="#15388B"/>
<path d="M49.8598 30.1818V60H43.5554V36.1658H43.3807L36.5522 40.4464V34.8555L43.934 30.1818H49.8598Z" fill="#BFCBE3"/>
</svg>
