<svg width="90" height="90" viewBox="0 0 90 90" fill="none" xmlns="http://www.w3.org/2000/svg">
<path d="M44 0.577351C44.6188 0.220085 45.3812 0.220085 46 0.57735L82.9711 21.9226C83.5899 22.2799 83.9711 22.9402 83.9711 23.6547V66.3453C83.9711 67.0598 83.59 67.7201 82.9711 68.0773L46 89.4226C45.3812 89.7799 44.6188 89.7799 44 89.4227L7.02886 68.0774C6.41006 67.7201 6.02886 67.0598 6.02886 66.3453V23.6547C6.02886 22.9402 6.41006 22.2799 7.02886 21.9226L44 0.577351Z" fill="#15388B"/>
<path d="M33.5043 60V55.4574L44.1183 45.6296C45.021 44.756 45.7781 43.9698 46.3896 43.271C47.0108 42.5721 47.4816 41.8878 47.8019 41.218C48.1222 40.5386 48.2824 39.8058 48.2824 39.0195C48.2824 38.146 48.0834 37.3937 47.6854 36.7628C47.2875 36.1222 46.7439 35.632 46.0547 35.2923C45.3656 34.9428 44.5842 34.7681 43.7106 34.7681C42.7982 34.7681 42.0023 34.9525 41.3228 35.3214C40.6434 35.6902 40.1192 36.2192 39.7504 36.9084C39.3816 37.5975 39.1971 38.4177 39.1971 39.369H33.2131C33.2131 37.418 33.6548 35.7242 34.538 34.2876C35.4213 32.8511 36.6589 31.7397 38.2508 30.9535C39.8426 30.1673 41.6771 29.7741 43.7543 29.7741C45.8897 29.7741 47.7485 30.1527 49.3307 30.9098C50.9225 31.6572 52.1601 32.6958 53.0434 34.0256C53.9267 35.3553 54.3683 36.8793 54.3683 38.5973C54.3683 39.7232 54.1451 40.8346 53.6986 41.9315C53.2618 43.0283 52.4804 44.2464 51.3544 45.5859C50.2285 46.9157 48.6415 48.5124 46.5934 50.3761L42.2401 54.642V54.8459H54.7614V60H33.5043Z" fill="#BFCBE3"/>
</svg>
