<svg width="90" height="90" viewBox="0 0 90 90" fill="none" xmlns="http://www.w3.org/2000/svg">
<path d="M44 0.577351C44.6188 0.220085 45.3812 0.220085 46 0.57735L82.9711 21.9226C83.5899 22.2799 83.9711 22.9402 83.9711 23.6547V66.3453C83.9711 67.0598 83.59 67.7201 82.9711 68.0773L46 89.4226C45.3812 89.7799 44.6188 89.7799 44 89.4227L7.02886 68.0774C6.41006 67.7201 6.02886 67.0598 6.02886 66.3453V23.6547C6.02886 22.9402 6.41006 22.2799 7.02886 21.9226L44 0.577351Z" fill="#15388B"/>
<path d="M43.9254 60.4077C41.7511 60.4077 39.8147 60.034 38.1161 59.2866C36.4272 58.5295 35.0925 57.4909 34.1122 56.1708C33.1415 54.841 32.6416 53.3074 32.6125 51.57H38.9605C38.9994 52.2979 39.2372 52.9386 39.674 53.4918C40.1205 54.0354 40.7126 54.4576 41.4502 54.7585C42.1879 55.0594 43.0178 55.2099 43.9399 55.2099C44.9009 55.2099 45.7502 55.04 46.4879 54.7003C47.2256 54.3606 47.8031 53.8898 48.2205 53.288C48.6379 52.6862 48.8465 51.9922 48.8465 51.206C48.8465 50.41 48.6233 49.7063 48.1768 49.0948C47.74 48.4736 47.1091 47.9883 46.284 47.6388C45.4687 47.2894 44.4981 47.1147 43.3721 47.1147H40.5912V42.4847H43.3721C44.3233 42.4847 45.163 42.3197 45.8909 41.9897C46.6286 41.6597 47.2013 41.2035 47.609 40.6211C48.0166 40.029 48.2205 39.3398 48.2205 38.5536C48.2205 37.8062 48.0409 37.151 47.6818 36.5881C47.3323 36.0154 46.8373 35.5689 46.1967 35.2486C45.5658 34.9283 44.8281 34.7681 43.9836 34.7681C43.1295 34.7681 42.3481 34.9234 41.6395 35.234C40.9309 35.5349 40.3631 35.9669 39.936 36.5298C39.509 37.0928 39.2809 37.7528 39.2517 38.5099H33.2095C33.2386 36.7919 33.7288 35.2777 34.68 33.9673C35.6312 32.657 36.9125 31.6329 38.5237 30.8952C40.1447 30.1478 41.9744 29.7741 44.0127 29.7741C46.0705 29.7741 47.871 30.1478 49.4144 30.8952C50.9577 31.6426 52.1564 32.6521 53.0106 33.9236C53.8745 35.1855 54.3016 36.6026 54.2919 38.1751C54.3016 39.8446 53.7823 41.2375 52.734 42.3537C51.6954 43.4699 50.3413 44.1785 48.6718 44.4794V44.7124C50.8655 44.9938 52.535 45.7558 53.6804 46.9982C54.8354 48.2309 55.4081 49.7743 55.3984 51.6282C55.4081 53.3268 54.9179 54.8362 53.9279 56.1562C52.9475 57.4763 51.5935 58.5149 49.8657 59.272C48.138 60.0291 46.1579 60.4077 43.9254 60.4077Z" fill="#BFCBE3"/>
</svg>
