<svg width="52" height="52" viewBox="0 0 52 52" fill="none" xmlns="http://www.w3.org/2000/svg">
<path d="M0 26C0 40.3594 11.6406 52 26 52C40.3594 52 52 40.3594 52 26C52 11.6406 40.3594 -7.15256e-07 26 -7.15256e-07C11.6406 -7.15256e-07 0 11.6406 0 26Z" fill="url(#paint0_linear_2140_804)" fill-opacity="0.31"/>
<path d="M0.5 26C0.5 40.0833 11.9167 51.5 26 51.5C40.0833 51.5 51.5 40.0833 51.5 26C51.5 11.9167 40.0833 0.499999 26 0.499999C11.9167 0.499999 0.5 11.9167 0.5 26Z" stroke="white" stroke-opacity="0.05"/>
<path d="M36.5297 20.3997C36.5371 19.8085 36.3804 19.2267 36.0772 18.7191C35.7739 18.2114 35.3359 17.7977 34.8118 17.5239C34.2877 17.25 33.698 17.1268 33.1081 17.1678C32.5182 17.2088 31.9512 17.4124 31.47 17.7561C30.9888 18.0998 30.6123 18.5701 30.3822 19.1149C30.1521 19.6596 30.0774 20.2574 30.1665 20.842C30.2555 21.4266 30.5048 21.9751 30.8867 22.4265C31.2685 22.878 31.768 23.2149 32.3297 23.3997V23.5997C32.3297 24.4653 31.9866 25.2955 31.3755 25.9084C30.7644 26.5214 29.9353 26.8671 29.0697 26.8697H25.8697C25.0926 26.8648 24.3299 27.0797 23.6697 27.4897V20.2397C24.3925 20.0019 25.007 19.5144 25.4028 18.8645C25.7986 18.2146 25.9498 17.445 25.8294 16.6936C25.709 15.9423 25.3248 15.2584 24.7457 14.7648C24.1667 14.2711 23.4307 14 22.6697 14C21.9088 14 21.1728 14.2711 20.5937 14.7648C20.0147 15.2584 19.6305 15.9423 19.5101 16.6936C19.3896 17.445 19.5409 18.2146 19.9367 18.8645C20.3325 19.5144 20.9469 20.0019 21.6697 20.2397V31.7597C20.9469 31.9975 20.3325 32.4851 19.9367 33.135C19.5409 33.7849 19.3896 34.5545 19.5101 35.3059C19.6305 36.0572 20.0147 36.741 20.5937 37.2347C21.1728 37.7283 21.9088 37.9995 22.6697 37.9995C23.4307 37.9995 24.1667 37.7283 24.7457 37.2347C25.3248 36.741 25.709 36.0572 25.8294 35.3059C25.9498 34.5545 25.7986 33.7849 25.4028 33.135C25.007 32.4851 24.3925 31.9975 23.6697 31.7597V31.0597C23.6724 30.478 23.9053 29.921 24.3176 29.5106C24.7299 29.1001 25.288 28.8697 25.8697 28.8697H29.0697C30.4657 28.8671 31.8036 28.3107 32.7897 27.3227C33.7759 26.3346 34.3297 24.9957 34.3297 23.5997V23.4397C34.9698 23.2292 35.5271 22.8219 35.9221 22.2761C36.3171 21.7302 36.5298 21.0736 36.5297 20.3997Z" fill="url(#paint1_linear_2140_804)"/>
<path d="M36.0298 20.3935L36.0297 20.3935V20.3998C36.0298 20.9683 35.8504 21.5223 35.517 21.9829C35.1837 22.4435 34.7135 22.7871 34.1735 22.9648L33.8297 23.0779V23.4397V23.5997C33.8297 24.8633 33.3284 26.0752 32.4358 26.9694C31.5434 27.8636 30.3326 28.3672 29.0693 28.3697C29.0691 28.3697 29.0689 28.3697 29.0688 28.3697L25.8697 28.3697C25.1558 28.3697 24.4709 28.6525 23.9649 29.1562C23.4589 29.6599 23.173 30.3435 23.1697 31.0575V31.0597V31.7597V32.1216L23.5135 32.2347C24.1234 32.4353 24.6418 32.8467 24.9757 33.3951C25.3097 33.9434 25.4373 34.5928 25.3357 35.2267C25.2341 35.8607 24.9099 36.4377 24.4214 36.8542C23.9328 37.2707 23.3118 37.4995 22.6697 37.4995C22.0277 37.4995 21.4067 37.2707 20.9181 36.8542C20.4295 36.4377 20.1054 35.8607 20.0038 35.2267C19.9022 34.5928 20.0298 33.9434 20.3637 33.3951C20.6977 32.8467 21.2161 32.4353 21.826 32.2347L22.1697 32.1216V31.7597V20.2397V19.8779L21.826 19.7648C21.2161 19.5641 20.6977 19.1528 20.3637 18.6044C20.0298 18.0561 19.9022 17.4067 20.0038 16.7727C20.1054 16.1388 20.4295 15.5618 20.9181 15.1453C21.4067 14.7288 22.0277 14.5 22.6697 14.5C23.3118 14.5 23.9328 14.7288 24.4214 15.1453C24.9099 15.5618 25.2341 16.1388 25.3357 16.7727C25.4373 17.4067 25.3097 18.0561 24.9757 18.6044C24.6418 19.1528 24.1234 19.5641 23.5135 19.7648L23.1697 19.8779V20.2397V27.4897V28.3889L23.9335 27.9145C24.5136 27.5542 25.1837 27.3654 25.8665 27.3697L25.8665 27.3697H25.8697L29.0697 27.3697L29.0713 27.3697C30.0691 27.3667 31.0251 26.9681 31.7296 26.2615C32.4341 25.5548 32.8297 24.5976 32.8297 23.5997V23.3997V23.0379L32.486 22.9248C32.0121 22.7688 31.5906 22.4846 31.2684 22.1037C30.9462 21.7227 30.7359 21.2599 30.6608 20.7667C30.5856 20.2735 30.6486 19.769 30.8428 19.3094C31.0369 18.8498 31.3546 18.453 31.7606 18.163C32.1666 17.873 32.645 17.7012 33.1428 17.6666C33.6405 17.632 34.1381 17.736 34.5803 17.967C35.0225 18.1981 35.3921 18.5471 35.6479 18.9755C35.9038 19.4038 36.036 19.8946 36.0298 20.3935Z" stroke="white" stroke-opacity="0.2"/>
<defs>
<linearGradient id="paint0_linear_2140_804" x1="26" y1="-7.15256e-07" x2="26" y2="52" gradientUnits="userSpaceOnUse">
<stop stop-color="#636AB6"/>
<stop offset="1" stop-color="#636AB6" stop-opacity="0.17"/>
</linearGradient>
<linearGradient id="paint1_linear_2140_804" x1="23.4138" y1="19.4192" x2="45.1124" y2="22.6131" gradientUnits="userSpaceOnUse">
<stop stop-color="#FFB366"/>
<stop offset="0.489583" stop-color="#E9766F"/>
<stop offset="1" stop-color="#C04350"/>
</linearGradient>
</defs>
</svg>
