<svg width="52" height="52" viewBox="0 0 52 52" fill="none" xmlns="http://www.w3.org/2000/svg">
<path d="M0 26C0 40.3594 11.6406 52 26 52C40.3594 52 52 40.3594 52 26C52 11.6406 40.3594 -7.15256e-07 26 -7.15256e-07C11.6406 -7.15256e-07 0 11.6406 0 26Z" fill="url(#paint0_linear_2140_774)" fill-opacity="0.31"/>
<path d="M0.5 26C0.5 40.0833 11.9167 51.5 26 51.5C40.0833 51.5 51.5 40.0833 51.5 26C51.5 11.9167 40.0833 0.499999 26 0.499999C11.9167 0.499999 0.5 11.9167 0.5 26Z" stroke="white" stroke-opacity="0.05"/>
<mask id="path-3-inside-1_2140_774" fill="white">
<path fill-rule="evenodd" clip-rule="evenodd" d="M15.1716 15.1716C15.9217 14.4214 16.9391 14 18 14H20C20.2652 14 20.5196 14.1054 20.7071 14.2929C20.8946 14.4804 21 14.7348 21 15C21 15.2652 20.8946 15.5196 20.7071 15.7071C20.5196 15.8946 20.2652 16 20 16H18C17.4696 16 16.9609 16.2107 16.5858 16.5858C16.2107 16.9609 16 17.4696 16 18V20C16 20.2652 15.8946 20.5196 15.7071 20.7071C15.5196 20.8946 15.2652 21 15 21C14.7348 21 14.4804 20.8946 14.2929 20.7071C14.1054 20.5196 14 20.2652 14 20V18C14 16.9391 14.4214 15.9217 15.1716 15.1716ZM31.2929 14.2929C31.4804 14.1054 31.7348 14 32 14H34C35.0609 14 36.0783 14.4214 36.8284 15.1716C37.5786 15.9217 38 16.9391 38 18V20C38 20.2652 37.8946 20.5196 37.7071 20.7071C37.5196 20.8946 37.2652 21 37 21C36.7348 21 36.4804 20.8946 36.2929 20.7071C36.1054 20.5196 36 20.2652 36 20V18C36 17.4696 35.7893 16.9609 35.4142 16.5858C35.0391 16.2107 34.5304 16 34 16H32C31.7348 16 31.4804 15.8946 31.2929 15.7071C31.1054 15.5196 31 15.2652 31 15C31 14.7348 31.1054 14.4804 31.2929 14.2929ZM15.7071 31.2929C15.8946 31.4804 16 31.7348 16 32V34C16 34.5304 16.2107 35.0391 16.5858 35.4142C16.9609 35.7893 17.4696 36 18 36H20C20.2652 36 20.5196 36.1054 20.7071 36.2929C20.8946 36.4804 21 36.7348 21 37C21 37.2652 20.8946 37.5196 20.7071 37.7071C20.5196 37.8946 20.2652 38 20 38H18C16.9391 38 15.9217 37.5786 15.1716 36.8284C14.4214 36.0783 14 35.0609 14 34V32C14 31.7348 14.1054 31.4804 14.2929 31.2929C14.4804 31.1054 14.7348 31 15 31C15.2652 31 15.5196 31.1054 15.7071 31.2929ZM37.7071 31.2929C37.8946 31.4804 38 31.7348 38 32V34C38 35.0609 37.5786 36.0783 36.8284 36.8284C36.0783 37.5786 35.0609 38 34 38H32C31.7348 38 31.4804 37.8946 31.2929 37.7071C31.1054 37.5196 31 37.2652 31 37C31 36.7348 31.1054 36.4804 31.2929 36.2929C31.4804 36.1054 31.7348 36 32 36H34C34.5304 36 35.0391 35.7893 35.4142 35.4142C35.7893 35.0391 36 34.5304 36 34V32C36 31.7348 36.1054 31.4804 36.2929 31.2929C36.4804 31.1054 36.7348 31 37 31C37.2652 31 37.5196 31.1054 37.7071 31.2929ZM26.0003 18.3965C26.3588 18.3965 26.6672 18.6502 26.7363 19.002C27.3549 22.154 29.8295 24.6534 32.8804 25.2667C33.2307 25.3371 33.4826 25.6448 33.4826 26.002C33.4826 26.3592 33.2307 26.6669 32.8804 26.7373C29.829 27.3507 27.3541 29.8467 26.7356 32.998C26.6666 33.3498 26.3582 33.6036 25.9997 33.6036C25.6411 33.6036 25.3327 33.3498 25.2637 32.998C24.6452 29.8466 22.1709 27.3507 19.1195 26.7373C18.7693 26.6669 18.5173 26.3592 18.5173 26.002C18.5173 25.6448 18.7693 25.3371 19.1195 25.2667C22.1705 24.6534 24.6458 22.1539 25.2644 19.002C25.3334 18.6502 25.6418 18.3965 26.0003 18.3965Z"/>
</mask>
<path fill-rule="evenodd" clip-rule="evenodd" d="M15.1716 15.1716C15.9217 14.4214 16.9391 14 18 14H20C20.2652 14 20.5196 14.1054 20.7071 14.2929C20.8946 14.4804 21 14.7348 21 15C21 15.2652 20.8946 15.5196 20.7071 15.7071C20.5196 15.8946 20.2652 16 20 16H18C17.4696 16 16.9609 16.2107 16.5858 16.5858C16.2107 16.9609 16 17.4696 16 18V20C16 20.2652 15.8946 20.5196 15.7071 20.7071C15.5196 20.8946 15.2652 21 15 21C14.7348 21 14.4804 20.8946 14.2929 20.7071C14.1054 20.5196 14 20.2652 14 20V18C14 16.9391 14.4214 15.9217 15.1716 15.1716ZM31.2929 14.2929C31.4804 14.1054 31.7348 14 32 14H34C35.0609 14 36.0783 14.4214 36.8284 15.1716C37.5786 15.9217 38 16.9391 38 18V20C38 20.2652 37.8946 20.5196 37.7071 20.7071C37.5196 20.8946 37.2652 21 37 21C36.7348 21 36.4804 20.8946 36.2929 20.7071C36.1054 20.5196 36 20.2652 36 20V18C36 17.4696 35.7893 16.9609 35.4142 16.5858C35.0391 16.2107 34.5304 16 34 16H32C31.7348 16 31.4804 15.8946 31.2929 15.7071C31.1054 15.5196 31 15.2652 31 15C31 14.7348 31.1054 14.4804 31.2929 14.2929ZM15.7071 31.2929C15.8946 31.4804 16 31.7348 16 32V34C16 34.5304 16.2107 35.0391 16.5858 35.4142C16.9609 35.7893 17.4696 36 18 36H20C20.2652 36 20.5196 36.1054 20.7071 36.2929C20.8946 36.4804 21 36.7348 21 37C21 37.2652 20.8946 37.5196 20.7071 37.7071C20.5196 37.8946 20.2652 38 20 38H18C16.9391 38 15.9217 37.5786 15.1716 36.8284C14.4214 36.0783 14 35.0609 14 34V32C14 31.7348 14.1054 31.4804 14.2929 31.2929C14.4804 31.1054 14.7348 31 15 31C15.2652 31 15.5196 31.1054 15.7071 31.2929ZM37.7071 31.2929C37.8946 31.4804 38 31.7348 38 32V34C38 35.0609 37.5786 36.0783 36.8284 36.8284C36.0783 37.5786 35.0609 38 34 38H32C31.7348 38 31.4804 37.8946 31.2929 37.7071C31.1054 37.5196 31 37.2652 31 37C31 36.7348 31.1054 36.4804 31.2929 36.2929C31.4804 36.1054 31.7348 36 32 36H34C34.5304 36 35.0391 35.7893 35.4142 35.4142C35.7893 35.0391 36 34.5304 36 34V32C36 31.7348 36.1054 31.4804 36.2929 31.2929C36.4804 31.1054 36.7348 31 37 31C37.2652 31 37.5196 31.1054 37.7071 31.2929ZM26.0003 18.3965C26.3588 18.3965 26.6672 18.6502 26.7363 19.002C27.3549 22.154 29.8295 24.6534 32.8804 25.2667C33.2307 25.3371 33.4826 25.6448 33.4826 26.002C33.4826 26.3592 33.2307 26.6669 32.8804 26.7373C29.829 27.3507 27.3541 29.8467 26.7356 32.998C26.6666 33.3498 26.3582 33.6036 25.9997 33.6036C25.6411 33.6036 25.3327 33.3498 25.2637 32.998C24.6452 29.8466 22.1709 27.3507 19.1195 26.7373C18.7693 26.6669 18.5173 26.3592 18.5173 26.002C18.5173 25.6448 18.7693 25.3371 19.1195 25.2667C22.1705 24.6534 24.6458 22.1539 25.2644 19.002C25.3334 18.6502 25.6418 18.3965 26.0003 18.3965Z" fill="url(#paint1_linear_2140_774)"/>
<path d="M26.7363 19.002L27.7176 18.8095L27.7175 18.8093L26.7363 19.002ZM32.8804 25.2667L32.6833 26.247L32.6834 26.2471L32.8804 25.2667ZM32.8804 26.7373L32.6834 25.7569L32.6833 25.7569L32.8804 26.7373ZM26.7356 32.998L25.7543 32.8054L25.7543 32.8055L26.7356 32.998ZM25.2637 32.998L26.245 32.8055L26.245 32.8054L25.2637 32.998ZM19.1195 26.7373L19.3166 25.7569L19.3166 25.7569L19.1195 26.7373ZM19.1195 25.2667L19.3166 26.247L19.3166 26.247L19.1195 25.2667ZM25.2644 19.002L26.2457 19.1946L26.2457 19.1945L25.2644 19.002ZM18 13C16.6739 13 15.4021 13.5268 14.4645 14.4645L15.8787 15.8787C16.4413 15.3161 17.2044 15 18 15V13ZM20 13H18V15H20V13ZM21.4142 13.5858C21.0391 13.2107 20.5304 13 20 13V15L20 15L21.4142 13.5858ZM22 15C22 14.4696 21.7893 13.9609 21.4142 13.5858L20 15L20 15H22ZM21.4142 16.4142C21.7893 16.0391 22 15.5304 22 15H20L20 15L21.4142 16.4142ZM20 17C20.5304 17 21.0391 16.7893 21.4142 16.4142L20 15L20 15V17ZM18 17H20V15H18V17ZM17.2929 17.2929C17.4804 17.1054 17.7348 17 18 17V15C17.2044 15 16.4413 15.3161 15.8787 15.8787L17.2929 17.2929ZM17 18C17 17.7348 17.1054 17.4804 17.2929 17.2929L15.8787 15.8787C15.3161 16.4413 15 17.2044 15 18H17ZM17 20V18H15V20H17ZM16.4142 21.4142C16.7893 21.0391 17 20.5304 17 20H15L15 20L16.4142 21.4142ZM15 22C15.5304 22 16.0391 21.7893 16.4142 21.4142L15 20L15 20V22ZM13.5858 21.4142C13.9609 21.7893 14.4696 22 15 22V20L15 20L13.5858 21.4142ZM13 20C13 20.5304 13.2107 21.0391 13.5858 21.4142L15 20L15 20H13ZM13 18V20H15V18H13ZM14.4645 14.4645C13.5268 15.4021 13 16.6739 13 18H15C15 17.2044 15.3161 16.4413 15.8787 15.8787L14.4645 14.4645ZM32 13C31.4696 13 30.9609 13.2107 30.5858 13.5858L32 15L32 15V13ZM34 13H32V15H34V13ZM37.5355 14.4645C36.5979 13.5268 35.3261 13 34 13V15C34.7956 15 35.5587 15.3161 36.1213 15.8787L37.5355 14.4645ZM39 18C39 16.6739 38.4732 15.4021 37.5355 14.4645L36.1213 15.8787C36.6839 16.4413 37 17.2044 37 18H39ZM39 20V18H37V20H39ZM38.4142 21.4142C38.7893 21.0391 39 20.5304 39 20H37L38.4142 21.4142ZM37 22C37.5304 22 38.0391 21.7893 38.4142 21.4142L37 20V22ZM35.5858 21.4142C35.9609 21.7893 36.4696 22 37 22V20L35.5858 21.4142ZM35 20C35 20.5304 35.2107 21.0391 35.5858 21.4142L37 20H35ZM35 18V20H37V18H35ZM34.7071 17.2929C34.8946 17.4804 35 17.7348 35 18H37C37 17.2043 36.6839 16.4413 36.1213 15.8787L34.7071 17.2929ZM34 17C34.2652 17 34.5196 17.1054 34.7071 17.2929L36.1213 15.8787C35.5587 15.3161 34.7957 15 34 15V17ZM32 17H34V15H32V17ZM30.5858 16.4142C30.9609 16.7893 31.4696 17 32 17V15L32 15L30.5858 16.4142ZM30 15C30 15.5304 30.2107 16.0391 30.5858 16.4142L32 15L32 15H30ZM30.5858 13.5858C30.2107 13.9609 30 14.4696 30 15H32L32 15L30.5858 13.5858ZM17 32C17 31.4696 16.7893 30.9609 16.4142 30.5858L15 32L15 32H17ZM17 34V32H15V34H17ZM17.2929 34.7071C17.1054 34.5196 17 34.2652 17 34H15C15 34.7957 15.3161 35.5587 15.8787 36.1213L17.2929 34.7071ZM18 35C17.7348 35 17.4804 34.8946 17.2929 34.7071L15.8787 36.1213C16.4413 36.6839 17.2043 37 18 37V35ZM20 35H18V37H20V35ZM21.4142 35.5858C21.0391 35.2107 20.5304 35 20 35V37L21.4142 35.5858ZM22 37C22 36.4696 21.7893 35.9609 21.4142 35.5858L20 37H22ZM21.4142 38.4142C21.7893 38.0391 22 37.5304 22 37H20L21.4142 38.4142ZM20 39C20.5304 39 21.0391 38.7893 21.4142 38.4142L20 37V39ZM18 39H20V37H18V39ZM14.4645 37.5355C15.4021 38.4732 16.6739 39 18 39V37C17.2044 37 16.4413 36.6839 15.8787 36.1213L14.4645 37.5355ZM13 34C13 35.3261 13.5268 36.5979 14.4645 37.5355L15.8787 36.1213C15.3161 35.5587 15 34.7956 15 34H13ZM13 32V34H15V32H13ZM13.5858 30.5858C13.2107 30.9609 13 31.4696 13 32H15L15 32L13.5858 30.5858ZM15 30C14.4696 30 13.9609 30.2107 13.5858 30.5858L15 32L15 32V30ZM16.4142 30.5858C16.0391 30.2107 15.5304 30 15 30V32L15 32L16.4142 30.5858ZM39 32C39 31.4696 38.7893 30.9609 38.4142 30.5858L37 32V32H39ZM39 34V32H37V34H39ZM37.5355 37.5355C38.4732 36.5979 39 35.3261 39 34H37C37 34.7957 36.6839 35.5587 36.1213 36.1213L37.5355 37.5355ZM34 39C35.3261 39 36.5979 38.4732 37.5355 37.5355L36.1213 36.1213C35.5587 36.6839 34.7957 37 34 37V39ZM32 39H34V37H32V39ZM30.5858 38.4142C30.9609 38.7893 31.4696 39 32 39V37H32L30.5858 38.4142ZM30 37C30 37.5304 30.2107 38.0391 30.5858 38.4142L32 37H32H30ZM30.5858 35.5858C30.2107 35.9609 30 36.4696 30 37H32H32L30.5858 35.5858ZM32 35C31.4696 35 30.9609 35.2107 30.5858 35.5858L32 37H32V35ZM34 35H32V37H34V35ZM34.7071 34.7071C34.5196 34.8946 34.2652 35 34 35V37C34.7957 37 35.5587 36.6839 36.1213 36.1213L34.7071 34.7071ZM35 34C35 34.2652 34.8946 34.5196 34.7071 34.7071L36.1213 36.1213C36.6839 35.5587 37 34.7957 37 34H35ZM35 32V34H37V32H35ZM35.5858 30.5858C35.2107 30.9609 35 31.4696 35 32H37V32L35.5858 30.5858ZM37 30C36.4696 30 35.9609 30.2107 35.5858 30.5858L37 32V32V30ZM38.4142 30.5858C38.0391 30.2107 37.5304 30 37 30V32V32L38.4142 30.5858ZM27.7175 18.8093C27.5563 17.9886 26.8369 17.3965 26.0003 17.3965V19.3965C25.8807 19.3965 25.778 19.3119 25.755 19.1948L27.7175 18.8093ZM33.0775 24.2863C30.4328 23.7546 28.2601 21.5739 27.7176 18.8095L25.755 19.1946C26.4497 22.734 29.2262 25.5521 32.6833 26.247L33.0775 24.2863ZM34.4826 26.002C34.4826 25.1686 33.8948 24.4505 33.0774 24.2863L32.6834 26.2471C32.5665 26.2236 32.4826 26.1209 32.4826 26.002H34.4826ZM33.0774 27.7177C33.8948 27.5534 34.4826 26.8353 34.4826 26.002H32.4826C32.4826 25.883 32.5665 25.7803 32.6834 25.7569L33.0774 27.7177ZM27.7169 33.1905C28.2592 30.4275 30.4315 28.2495 33.0775 27.7176L32.6833 25.7569C29.2264 26.4518 26.449 29.2658 25.7543 32.8054L27.7169 33.1905ZM25.9997 34.6036C26.8363 34.6036 27.5559 34.0113 27.7169 33.1904L25.7543 32.8055C25.7773 32.6882 25.8801 32.6036 25.9997 32.6036V34.6036ZM24.2824 33.1904C24.4434 34.0114 25.1631 34.6036 25.9997 34.6036V32.6036C26.1191 32.6036 26.222 32.6881 26.245 32.8055L24.2824 33.1904ZM18.9224 27.7176C21.5682 28.2495 23.7401 30.4273 24.2824 33.1905L26.245 32.8054C25.5503 29.2658 22.7735 26.4518 19.3166 25.7569L18.9224 27.7176ZM17.5173 26.002C17.5173 26.8354 18.1052 27.5534 18.9225 27.7176L19.3166 25.7569C19.4334 25.7803 19.5173 25.8829 19.5173 26.002H17.5173ZM18.9225 24.2863C18.1052 24.4505 17.5173 25.1685 17.5173 26.002H19.5173C19.5173 26.121 19.4334 26.2236 19.3166 26.247L18.9225 24.2863ZM24.2831 18.8095C23.7406 21.5737 21.5673 23.7546 18.9224 24.2863L19.3166 26.247C22.7737 25.5521 25.551 22.7341 26.2457 19.1946L24.2831 18.8095ZM26.0003 17.3965C25.1638 17.3965 24.4441 17.9886 24.2831 18.8096L26.2457 19.1945C26.2227 19.3119 26.1198 19.3965 26.0003 19.3965V17.3965Z" fill="white" fill-opacity="0.1" mask="url(#path-3-inside-1_2140_774)"/>
<defs>
<linearGradient id="paint0_linear_2140_774" x1="26" y1="-7.15256e-07" x2="26" y2="52" gradientUnits="userSpaceOnUse">
<stop stop-color="#636AB6"/>
<stop offset="1" stop-color="#636AB6" stop-opacity="0.17"/>
</linearGradient>
<linearGradient id="paint1_linear_2140_774" x1="10.1393" y1="7.93311" x2="38.2675" y2="45.4375" gradientUnits="userSpaceOnUse">
<stop stop-color="#F5F1FF"/>
<stop offset="1" stop-color="#093B9D"/>
</linearGradient>
</defs>
</svg>
