<svg width="98" height="166" viewBox="0 0 98 166" fill="none" xmlns="http://www.w3.org/2000/svg">
<g filter="url(#filter0_di_2140_789)">
<path fill-rule="evenodd" clip-rule="evenodd" d="M0.5 0.878677C1.67158 -0.292895 3.57108 -0.292891 4.74265 0.878681L37.0711 33.2071C37.8212 33.9572 38.8386 34.3787 39.8995 34.3787H55.304C56.8338 34.3787 58.1706 33.4402 59.2304 32.3371C60.6861 30.8219 62.7329 29.8789 65 29.8789C69.4183 29.8789 73 33.4606 73 37.8789C73 42.2972 69.4183 45.8789 65 45.8789C62.4867 45.8789 60.2441 44.7199 58.7775 42.9073C57.6906 41.5639 56.2304 40.3787 54.5024 40.3787H44C41.7909 40.3787 40 42.1695 40 44.3787L40 102.565C40 103.891 40.5268 105.163 41.4645 106.101L59.0927 123.729C60.3435 124.98 62.269 125.151 64.025 124.938C64.3446 124.899 64.67 124.879 65 124.879C69.4183 124.879 73 128.461 73 132.879C73 137.297 69.4183 140.879 65 140.879C60.5817 140.879 57 137.297 57 132.879C57 131.39 56.7044 129.826 55.6517 128.773L37.2218 110.343C35.1589 108.28 34 105.482 34 102.565L34 40.2782C34 39.2173 33.5786 38.1999 32.8284 37.4497L0.5 5.12132C-0.671577 3.94975 -0.67157 2.05025 0.5 0.878677Z" fill="#110A2B" fill-opacity="0.25" shape-rendering="crispEdges"/>
</g>
<g opacity="0.4">
<mask id="path-2-inside-1_2140_789" fill="white">
<path d="M60 38C60 35.2386 62.2386 33 65 33C67.7614 33 70 35.2386 70 38C70 40.7614 67.7614 43 65 43C62.2386 43 60 40.7614 60 38Z"/>
</mask>
<path d="M60 38C60 35.2386 62.2386 33 65 33C67.7614 33 70 35.2386 70 38C70 40.7614 67.7614 43 65 43C62.2386 43 60 40.7614 60 38Z" fill="#D37252"/>
<path d="M60 38C60 35.2386 62.2386 33 65 33C67.7614 33 70 35.2386 70 38C70 40.7614 67.7614 43 65 43C62.2386 43 60 40.7614 60 38Z" fill="url(#paint0_radial_2140_789)" style="mix-blend-mode:overlay"/>
<path d="M60 37C60 34.2386 62.2386 32 65 32C67.7614 32 70 34.2386 70 37V38C70 35.7909 67.7614 34 65 34C62.2386 34 60 35.7909 60 38V37ZM70 39C70 41.7614 67.7614 44 65 44C62.2386 44 60 41.7614 60 39V38C60 40.2091 62.2386 42 65 42C67.7614 42 70 40.2091 70 38V39ZM60 43V33V43ZM70 33V43V33Z" fill="white" fill-opacity="0.15" mask="url(#path-2-inside-1_2140_789)"/>
</g>
<g opacity="0.3" filter="url(#filter1_f_2140_789)">
<mask id="path-4-inside-2_2140_789" fill="white">
<path d="M53 133C53 126.373 58.3726 121 65 121C71.6274 121 77 126.373 77 133C77 139.627 71.6274 145 65 145C58.3726 145 53 139.627 53 133Z"/>
</mask>
<path d="M53 133C53 126.373 58.3726 121 65 121C71.6274 121 77 126.373 77 133C77 139.627 71.6274 145 65 145C58.3726 145 53 139.627 53 133Z" fill="#D37252"/>
<path d="M53 133C53 126.373 58.3726 121 65 121C71.6274 121 77 126.373 77 133C77 139.627 71.6274 145 65 145C58.3726 145 53 139.627 53 133Z" fill="url(#paint1_radial_2140_789)" style="mix-blend-mode:overlay"/>
<path d="M53 132C53 125.373 58.3726 120 65 120C71.6274 120 77 125.373 77 132V133C77 126.925 71.6274 122 65 122C58.3726 122 53 126.925 53 133V132ZM77 134C77 140.627 71.6274 146 65 146C58.3726 146 53 140.627 53 134V133C53 139.075 58.3726 144 65 144C71.6274 144 77 139.075 77 133V134ZM53 145V121V145ZM77 121V145V121Z" fill="white" fill-opacity="0.15" mask="url(#path-4-inside-2_2140_789)"/>
</g>
<mask id="path-6-inside-3_2140_789" fill="white">
<path d="M60 133C60 130.239 62.2386 128 65 128C67.7614 128 70 130.239 70 133C70 135.761 67.7614 138 65 138C62.2386 138 60 135.761 60 133Z"/>
</mask>
<path d="M60 133C60 130.239 62.2386 128 65 128C67.7614 128 70 130.239 70 133C70 135.761 67.7614 138 65 138C62.2386 138 60 135.761 60 133Z" fill="#D37252"/>
<path d="M60 133C60 130.239 62.2386 128 65 128C67.7614 128 70 130.239 70 133C70 135.761 67.7614 138 65 138C62.2386 138 60 135.761 60 133Z" fill="url(#paint2_radial_2140_789)" style="mix-blend-mode:overlay"/>
<path d="M60 132C60 129.239 62.2386 127 65 127C67.7614 127 70 129.239 70 132V133C70 130.791 67.7614 129 65 129C62.2386 129 60 130.791 60 133V132ZM70 134C70 136.761 67.7614 139 65 139C62.2386 139 60 136.761 60 134V133C60 135.209 62.2386 137 65 137C67.7614 137 70 135.209 70 133V134ZM60 138V128V138ZM70 128V138V128Z" fill="white" fill-opacity="0.15" mask="url(#path-6-inside-3_2140_789)"/>
<g filter="url(#filter2_f_2140_789)">
<path d="M34 71C34 69.3431 35.3431 68 37 68C38.6569 68 40 69.3431 40 71V96C40 97.6569 38.6569 99 37 99C35.3431 99 34 97.6569 34 96V71Z" fill="#DE854A"/>
</g>
<mask id="path-9-inside-4_2140_789" fill="white">
<path d="M35 74C35 72.8954 35.8954 72 37 72C38.1046 72 39 72.8954 39 74V90C39 91.1046 38.1046 92 37 92C35.8954 92 35 91.1046 35 90V74Z"/>
</mask>
<path d="M35 74C35 72.8954 35.8954 72 37 72C38.1046 72 39 72.8954 39 74V90C39 91.1046 38.1046 92 37 92C35.8954 92 35 91.1046 35 90V74Z" fill="#EB9256"/>
<path d="M35 74C35 72.8954 35.8954 72 37 72C38.1046 72 39 72.8954 39 74V90C39 91.1046 38.1046 92 37 92C35.8954 92 35 91.1046 35 90V74Z" fill="url(#paint3_radial_2140_789)" fill-opacity="0.6" style="mix-blend-mode:overlay"/>
<path d="M35 74C35 72.8954 35.8954 72 37 72C38.1046 72 39 72.8954 39 74V90C39 91.1046 38.1046 92 37 92C35.8954 92 35 91.1046 35 90V74Z" fill="url(#paint4_radial_2140_789)" fill-opacity="0.2"/>
<path d="M35 73C35 71.8954 35.8954 71 37 71C38.1046 71 39 71.8954 39 73V74C39 73.4477 38.1046 73 37 73C35.8954 73 35 73.4477 35 74V73ZM39 91C39 92.1046 38.1046 93 37 93C35.8954 93 35 92.1046 35 91V90C35 90.5523 35.8954 91 37 91C38.1046 91 39 90.5523 39 90V91ZM35 92V72V92ZM39 72V92V72Z" fill="white" fill-opacity="0.15" mask="url(#path-9-inside-4_2140_789)"/>
<defs>
<filter id="filter0_di_2140_789" x="-2.37891" y="0" width="75.3789" height="142.879" filterUnits="userSpaceOnUse" color-interpolation-filters="sRGB">
<feFlood flood-opacity="0" result="BackgroundImageFix"/>
<feColorMatrix in="SourceAlpha" type="matrix" values="0 0 0 0 0 0 0 0 0 0 0 0 0 0 0 0 0 0 127 0" result="hardAlpha"/>
<feOffset dx="-1" dy="1"/>
<feGaussianBlur stdDeviation="0.5"/>
<feComposite in2="hardAlpha" operator="out"/>
<feColorMatrix type="matrix" values="0 0 0 0 1 0 0 0 0 1 0 0 0 0 1 0 0 0 0.08 0"/>
<feBlend mode="normal" in2="BackgroundImageFix" result="effect1_dropShadow_2140_789"/>
<feBlend mode="normal" in="SourceGraphic" in2="effect1_dropShadow_2140_789" result="shape"/>
<feColorMatrix in="SourceAlpha" type="matrix" values="0 0 0 0 0 0 0 0 0 0 0 0 0 0 0 0 0 0 127 0" result="hardAlpha"/>
<feOffset dx="-1"/>
<feGaussianBlur stdDeviation="1.5"/>
<feComposite in2="hardAlpha" operator="arithmetic" k2="-1" k3="1"/>
<feColorMatrix type="matrix" values="0 0 0 0 0.00547059 0 0 0 0 0.0187459 0 0 0 0 0.116098 0 0 0 0.6 0"/>
<feBlend mode="normal" in2="shape" result="effect2_innerShadow_2140_789"/>
</filter>
<filter id="filter1_f_2140_789" x="32.2" y="100.2" width="65.6" height="65.6" filterUnits="userSpaceOnUse" color-interpolation-filters="sRGB">
<feFlood flood-opacity="0" result="BackgroundImageFix"/>
<feBlend mode="normal" in="SourceGraphic" in2="BackgroundImageFix" result="shape"/>
<feGaussianBlur stdDeviation="10.4" result="effect1_foregroundBlur_2140_789"/>
</filter>
<filter id="filter2_f_2140_789" x="17.3" y="51.3" width="39.4" height="64.4" filterUnits="userSpaceOnUse" color-interpolation-filters="sRGB">
<feFlood flood-opacity="0" result="BackgroundImageFix"/>
<feBlend mode="normal" in="SourceGraphic" in2="BackgroundImageFix" result="shape"/>
<feGaussianBlur stdDeviation="8.35" result="effect1_foregroundBlur_2140_789"/>
</filter>
<radialGradient id="paint0_radial_2140_789" cx="0" cy="0" r="1" gradientUnits="userSpaceOnUse" gradientTransform="translate(65 40) rotate(90) scale(9.30435 71.0517)">
<stop stop-color="white" stop-opacity="0"/>
<stop offset="1" stop-color="white"/>
</radialGradient>
<radialGradient id="paint1_radial_2140_789" cx="0" cy="0" r="1" gradientUnits="userSpaceOnUse" gradientTransform="translate(65 137.8) rotate(90) scale(22.3304 170.524)">
<stop stop-color="white" stop-opacity="0"/>
<stop offset="1" stop-color="white"/>
</radialGradient>
<radialGradient id="paint2_radial_2140_789" cx="0" cy="0" r="1" gradientUnits="userSpaceOnUse" gradientTransform="translate(65 135) rotate(90) scale(9.30435 71.0517)">
<stop stop-color="white" stop-opacity="0"/>
<stop offset="1" stop-color="white"/>
</radialGradient>
<radialGradient id="paint3_radial_2140_789" cx="0" cy="0" r="1" gradientUnits="userSpaceOnUse" gradientTransform="translate(37 87.6522) rotate(90) scale(16.9565 25.8973)">
<stop stop-color="white"/>
<stop offset="1" stop-color="white" stop-opacity="0"/>
</radialGradient>
<radialGradient id="paint4_radial_2140_789" cx="0" cy="0" r="1" gradientUnits="userSpaceOnUse" gradientTransform="translate(37 88.087) rotate(90) scale(6.08696 4.66667)">
<stop stop-color="white"/>
<stop offset="1" stop-color="white" stop-opacity="0"/>
</radialGradient>
</defs>
</svg>
