<svg width="252" height="252" viewBox="0 0 252 252" fill="none" xmlns="http://www.w3.org/2000/svg">
<g filter="url(#filter0_di_2153_721)">
<rect x="36" y="24" width="180" height="180" rx="26" fill="white"/>
<path d="M107.803 57.9467C95.8134 62.1061 85.4734 70.0007 78.3019 80.4711C71.1305 90.9414 67.5057 103.436 67.9599 116.118C68.4141 128.801 72.9235 141.004 80.8255 150.934C88.7276 160.865 99.6059 167.999 111.863 171.29C121.799 173.854 132.21 173.967 142.2 171.619C151.25 169.586 159.617 165.238 166.481 159C173.626 152.309 178.812 143.798 181.481 134.381C184.383 124.14 184.899 113.371 182.991 102.9H127.191V126.047H159.506C158.861 129.738 157.477 133.262 155.437 136.406C153.398 139.551 150.745 142.251 147.638 144.347C143.692 146.957 139.243 148.713 134.578 149.503C129.9 150.373 125.101 150.373 120.422 149.503C115.68 148.523 111.194 146.565 107.25 143.756C100.914 139.271 96.1565 132.899 93.6564 125.55C91.114 118.063 91.114 109.946 93.6564 102.459C95.436 97.2112 98.3779 92.4329 102.263 88.481C106.708 83.8756 112.336 80.5835 118.53 78.9661C124.723 77.3488 131.242 77.4685 137.372 79.3123C142.16 80.7822 146.539 83.3505 150.16 86.8123C153.803 83.1873 157.441 79.5529 161.072 75.9092C162.947 73.9498 164.991 72.0842 166.838 70.0779C161.312 64.9355 154.825 60.9341 147.75 58.3029C134.866 53.6247 120.769 53.499 107.803 57.9467Z" fill="white"/>
<path d="M107.804 57.9473C120.768 53.4966 134.865 53.619 147.75 58.2942C154.827 60.9432 161.31 64.9639 166.829 70.1255C164.954 72.1317 162.975 74.0067 161.063 75.9567C157.425 79.5879 153.791 83.2067 150.16 86.813C146.54 83.3511 142.161 80.7829 137.372 79.3129C131.245 77.4627 124.726 77.336 118.531 78.9468C112.336 80.5575 106.704 83.8435 102.254 88.4442C98.3688 92.3961 95.4269 97.1744 93.6473 102.422L74.2129 87.3754C81.1692 73.5807 93.2137 63.0288 107.804 57.9473Z" fill="#E33629"/>
<path d="M69.056 102.281C70.1006 97.1043 71.8348 92.0909 74.2123 87.375L93.6467 102.459C91.1043 109.946 91.1043 118.063 93.6467 125.55C87.1717 130.55 80.6935 135.575 74.2123 140.625C68.2606 128.778 66.4454 115.28 69.056 102.281Z" fill="#F8BD00"/>
<path d="M127.191 102.891H182.991C184.899 113.362 184.383 124.131 181.481 134.372C178.812 143.789 173.626 152.3 166.481 158.991C160.209 154.097 153.909 149.241 147.638 144.347C150.747 142.249 153.401 139.546 155.44 136.398C157.48 133.25 158.863 129.723 159.506 126.028H127.191C127.181 118.322 127.191 110.606 127.191 102.891Z" fill="#587DBD"/>
<path d="M74.2031 140.625C80.6844 135.625 87.1625 130.6 93.6375 125.55C96.1426 132.902 100.907 139.274 107.25 143.756C111.206 146.552 115.702 148.494 120.45 149.456C125.129 150.326 129.928 150.326 134.606 149.456C139.271 148.666 143.72 146.91 147.666 144.3C153.938 149.194 160.237 154.05 166.509 158.944C159.646 165.185 151.279 169.536 142.228 171.572C132.238 173.92 121.827 173.808 111.891 171.244C104.032 169.145 96.6907 165.446 90.3281 160.378C83.5937 155.031 78.0933 148.293 74.2031 140.625Z" fill="#319F43"/>
</g>
<defs>
<filter id="filter0_di_2153_721" x="0" y="0" width="252" height="252" filterUnits="userSpaceOnUse" color-interpolation-filters="sRGB">
<feFlood flood-opacity="0" result="BackgroundImageFix"/>
<feColorMatrix in="SourceAlpha" type="matrix" values="0 0 0 0 0 0 0 0 0 0 0 0 0 0 0 0 0 0 127 0" result="hardAlpha"/>
<feMorphology radius="4" operator="dilate" in="SourceAlpha" result="effect1_dropShadow_2153_721"/>
<feOffset dy="12"/>
<feGaussianBlur stdDeviation="16"/>
<feComposite in2="hardAlpha" operator="out"/>
<feColorMatrix type="matrix" values="0 0 0 0 0.192157 0 0 0 0 0.623529 0 0 0 0 0.262745 0 0 0 0.8 0"/>
<feBlend mode="normal" in2="BackgroundImageFix" result="effect1_dropShadow_2153_721"/>
<feBlend mode="normal" in="SourceGraphic" in2="effect1_dropShadow_2153_721" result="shape"/>
<feColorMatrix in="SourceAlpha" type="matrix" values="0 0 0 0 0 0 0 0 0 0 0 0 0 0 0 0 0 0 127 0" result="hardAlpha"/>
<feMorphology radius="4" operator="erode" in="SourceAlpha" result="effect2_innerShadow_2153_721"/>
<feOffset dy="12"/>
<feGaussianBlur stdDeviation="16"/>
<feComposite in2="hardAlpha" operator="arithmetic" k2="-1" k3="1"/>
<feColorMatrix type="matrix" values="0 0 0 0 0.192157 0 0 0 0 0.623529 0 0 0 0 0.262745 0 0 0 0.8 0"/>
<feBlend mode="normal" in2="shape" result="effect2_innerShadow_2153_721"/>
</filter>
</defs>
</svg>
